<svg width="34" height="26" viewBox="0 0 34 26" fill="none" xmlns="http://www.w3.org/2000/svg">
<path d="M17.45 13.33C18.2504 12.6372 18.8923 11.7803 19.3323 10.8175C19.7723 9.85474 20 8.80856 20 7.75C20 5.76088 19.2098 3.85322 17.8033 2.4467C16.3968 1.04018 14.4891 0.25 12.5 0.25C10.5109 0.25 8.60322 1.04018 7.1967 2.4467C5.79018 3.85322 5 5.76088 5 7.75C4.99999 8.80856 5.2277 9.85474 5.66769 10.8175C6.10767 11.7803 6.74963 12.6372 7.55 13.33C5.45021 14.2808 3.6687 15.8163 2.41847 17.7528C1.16824 19.6893 0.502208 21.945 0.5 24.25C0.5 24.6478 0.658035 25.0294 0.93934 25.3107C1.22064 25.592 1.60218 25.75 2 25.75C2.39782 25.75 2.77936 25.592 3.06066 25.3107C3.34196 25.0294 3.5 24.6478 3.5 24.25C3.5 21.8631 4.44821 19.5739 6.13604 17.886C7.82387 16.1982 10.1131 15.25 12.5 15.25C14.8869 15.25 17.1761 16.1982 18.864 17.886C20.5518 19.5739 21.5 21.8631 21.5 24.25C21.5 24.6478 21.658 25.0294 21.9393 25.3107C22.2206 25.592 22.6022 25.75 23 25.75C23.3978 25.75 23.7794 25.592 24.0607 25.3107C24.342 25.0294 24.5 24.6478 24.5 24.25C24.4978 21.945 23.8318 19.6893 22.5815 17.7528C21.3313 15.8163 19.5498 14.2808 17.45 13.33ZM12.5 12.25C11.61 12.25 10.74 11.9861 9.99993 11.4916C9.25991 10.9971 8.68314 10.2943 8.34254 9.47208C8.00195 8.64981 7.91283 7.74501 8.08647 6.87209C8.2601 5.99918 8.68868 5.19736 9.31802 4.56802C9.94736 3.93868 10.7492 3.5101 11.6221 3.33647C12.495 3.16283 13.3998 3.25195 14.2221 3.59254C15.0443 3.93314 15.7471 4.50991 16.2416 5.24993C16.7361 5.98996 17 6.85998 17 7.75C17 8.94347 16.5259 10.0881 15.682 10.932C14.8381 11.7759 13.6935 12.25 12.5 12.25ZM27.11 12.73C28.0699 11.649 28.697 10.3136 28.9157 8.88451C29.1344 7.45544 28.9354 5.99361 28.3426 4.675C27.7499 3.35639 26.7887 2.23719 25.5747 1.45213C24.3607 0.667075 22.9457 0.249614 21.5 0.25C21.1022 0.25 20.7206 0.408035 20.4393 0.68934C20.158 0.970645 20 1.35218 20 1.75C20 2.14783 20.158 2.52936 20.4393 2.81066C20.7206 3.09196 21.1022 3.25 21.5 3.25C22.6935 3.25 23.8381 3.72411 24.682 4.56802C25.5259 5.41193 26 6.55653 26 7.75C25.9979 8.53786 25.7889 9.31136 25.3941 9.99313C24.9992 10.6749 24.4323 11.2411 23.75 11.635C23.5276 11.7633 23.3419 11.9465 23.2105 12.1671C23.0792 12.3877 23.0067 12.6384 23 12.895C22.9937 13.1496 23.0524 13.4017 23.1705 13.6274C23.2886 13.8531 23.4622 14.045 23.675 14.185L24.26 14.575L24.455 14.68C26.2631 15.5376 27.7885 16.894 28.8515 18.5895C29.9145 20.285 30.4708 22.2489 30.455 24.25C30.455 24.6478 30.613 25.0294 30.8943 25.3107C31.1756 25.592 31.5572 25.75 31.955 25.75C32.3528 25.75 32.7344 25.592 33.0157 25.3107C33.297 25.0294 33.455 24.6478 33.455 24.25C33.4673 21.9481 32.8907 19.6814 31.7802 17.6651C30.6697 15.6488 29.062 13.95 27.11 12.73Z" fill="#687684"/>
</svg>
