<svg width="16" height="16" viewBox="0 0 16 16" fill="none" xmlns="http://www.w3.org/2000/svg">
<path d="M5.21225 7.65068C5.06451 7.65068 4.92008 7.69449 4.79724 7.77657C4.6744 7.85865 4.57865 7.97532 4.52211 8.11181C4.46558 8.24831 4.45078 8.3985 4.47961 8.54341C4.50843 8.68831 4.57957 8.82141 4.68404 8.92588C4.78851 9.03035 4.92161 9.10149 5.06652 9.13032C5.21142 9.15914 5.36161 9.14435 5.49811 9.08781C5.63461 9.03127 5.75127 8.93552 5.83335 8.81268C5.91543 8.68984 5.95924 8.54542 5.95924 8.39767C5.95924 8.19956 5.88054 8.00956 5.74045 7.86947C5.60036 7.72938 5.41036 7.65068 5.21225 7.65068ZM8.20022 7.65068C8.05248 7.65068 7.90806 7.69449 7.78522 7.77657C7.66237 7.85865 7.56663 7.97532 7.51009 8.11181C7.45355 8.24831 7.43876 8.3985 7.46758 8.54341C7.49641 8.68831 7.56755 8.82141 7.67202 8.92588C7.77649 9.03035 7.90959 9.10149 8.05449 9.13032C8.1994 9.15914 8.34959 9.14435 8.48609 9.08781C8.62258 9.03127 8.73925 8.93552 8.82133 8.81268C8.90341 8.68984 8.94722 8.54542 8.94722 8.39767C8.94722 8.19956 8.86852 8.00956 8.72843 7.86947C8.58834 7.72938 8.39834 7.65068 8.20022 7.65068ZM11.1882 7.65068C11.0405 7.65068 10.896 7.69449 10.7732 7.77657C10.6503 7.85865 10.5546 7.97532 10.4981 8.11181C10.4415 8.24831 10.4267 8.3985 10.4556 8.54341C10.4844 8.68831 10.5555 8.82141 10.66 8.92588C10.7645 9.03035 10.8976 9.10149 11.0425 9.13032C11.1874 9.15914 11.3376 9.14435 11.4741 9.08781C11.6106 9.03127 11.7272 8.93552 11.8093 8.81268C11.8914 8.68984 11.9352 8.54542 11.9352 8.39767C11.9352 8.19956 11.8565 8.00956 11.7164 7.86947C11.5763 7.72938 11.3863 7.65068 11.1882 7.65068ZM8.20022 0.927734C7.21926 0.927734 6.2479 1.12095 5.3416 1.49635C4.43531 1.87175 3.61183 2.42198 2.91818 3.11563C1.51729 4.51651 0.730284 6.41652 0.730284 8.39767C0.723753 10.1226 1.321 11.7954 2.41849 13.1261L0.924502 14.6201C0.820851 14.7252 0.750636 14.8586 0.722718 15.0035C0.6948 15.1484 0.710429 15.2983 0.767633 15.4344C0.829677 15.5688 0.930257 15.6817 1.05661 15.7588C1.18295 15.836 1.32937 15.8738 1.47728 15.8676H8.20022C10.1814 15.8676 12.0814 15.0806 13.4823 13.6797C14.8832 12.2788 15.6702 10.3788 15.6702 8.39767C15.6702 6.41652 14.8832 4.51651 13.4823 3.11563C12.0814 1.71474 10.1814 0.927734 8.20022 0.927734ZM8.20022 14.3736H3.27753L3.97224 13.6789C4.04282 13.6097 4.09897 13.5272 4.13744 13.4362C4.17591 13.3452 4.19593 13.2474 4.19634 13.1486C4.19353 12.9515 4.11298 12.7636 3.97224 12.6257C2.99411 11.6486 2.38501 10.3627 2.24869 8.9869C2.11238 7.61113 2.45729 6.23065 3.22467 5.08066C3.99204 3.93068 5.1344 3.08233 6.45712 2.68016C7.77985 2.27799 9.20109 2.34688 10.4787 2.87508C11.7563 3.40329 12.8113 4.35814 13.4639 5.57694C14.1164 6.79575 14.3262 8.20311 14.0575 9.55926C13.7888 10.9154 13.0582 12.1364 11.9901 13.0143C10.9221 13.8921 9.58273 14.3725 8.20022 14.3736Z" fill="#959FA9"/>
</svg>
