<svg width="36" height="22" viewBox="0 0 36 22" fill="none" xmlns="http://www.w3.org/2000/svg">
<path d="M34.6775 2.51275C34.4115 2.35915 34.1097 2.27829 33.8025 2.27829C33.4953 2.27829 33.1935 2.35915 32.9275 2.51275L26.75 5.55775C26.7001 4.19899 26.1251 2.91257 25.1459 1.96926C24.1667 1.02595 22.8597 0.499331 21.5 0.500245H5.75C4.35761 0.500245 3.02226 1.05337 2.03769 2.03794C1.05312 3.0225 0.5 4.35786 0.5 5.75025V16.2502C0.5 17.6426 1.05312 18.978 2.03769 19.9626C3.02226 20.9471 4.35761 21.5003 5.75 21.5003H21.5C22.8597 21.5012 24.1667 20.9745 25.1459 20.0312C26.1251 19.0879 26.7001 17.8015 26.75 16.4427L32.98 19.5578C33.2185 19.68 33.482 19.7459 33.75 19.7503C34.0776 19.7513 34.399 19.6604 34.6775 19.4878C34.9297 19.3301 35.1376 19.1108 35.2815 18.8506C35.4254 18.5903 35.5006 18.2977 35.5 18.0002V4.00025C35.5006 3.70284 35.4254 3.4102 35.2815 3.14993C35.1376 2.88966 34.9297 2.67037 34.6775 2.51275ZM23.25 16.2502C23.25 16.7144 23.0656 17.1595 22.7374 17.4877C22.4092 17.8159 21.9641 18.0002 21.5 18.0002H5.75C5.28587 18.0002 4.84075 17.8159 4.51256 17.4877C4.18437 17.1595 4 16.7144 4 16.2502V5.75025C4 5.28612 4.18437 4.841 4.51256 4.51281C4.84075 4.18462 5.28587 4.00025 5.75 4.00025H21.5C21.9641 4.00025 22.4092 4.18462 22.7374 4.51281C23.0656 4.841 23.25 5.28612 23.25 5.75025V16.2502ZM32 15.1652L26.75 12.5402V9.46025L32 6.83525V15.1652Z" fill="#687684" stroke="white" stroke-width="0.8"/>
</svg>
