<svg width="28" height="24" viewBox="0 0 28 24" fill="none" xmlns="http://www.w3.org/2000/svg">
<path d="M24.8797 2.66668C23.4663 1.24963 21.5928 0.384737 19.5975 0.228244C17.6022 0.0717503 15.6167 0.633972 13.9997 1.81335C12.3033 0.551534 10.1917 -0.0206345 8.09028 0.212067C5.98885 0.444768 4.05364 1.46505 2.67435 3.06746C1.29506 4.66987 0.574146 6.73538 0.656784 8.84803C0.739423 10.9607 1.61947 12.9636 3.11972 14.4533L11.3997 22.7467C12.0931 23.4291 13.0269 23.8115 13.9997 23.8115C14.9725 23.8115 15.9064 23.4291 16.5997 22.7467L24.8797 14.4533C26.4365 12.887 27.3103 10.7684 27.3103 8.56002C27.3103 6.35165 26.4365 4.23299 24.8797 2.66668ZM22.9997 12.6133L14.7197 20.8933C14.6255 20.9885 14.5134 21.064 14.3898 21.1155C14.2662 21.1671 14.1336 21.1936 13.9997 21.1936C13.8658 21.1936 13.7332 21.1671 13.6097 21.1155C13.4861 21.064 13.3739 20.9885 13.2797 20.8933L4.99972 12.5733C3.95406 11.5045 3.36853 10.0686 3.36853 8.57335C3.36853 7.07806 3.95406 5.64222 4.99972 4.57335C6.06526 3.52133 7.50235 2.93144 8.99972 2.93144C10.4971 2.93144 11.9342 3.52133 12.9997 4.57335C13.1237 4.69832 13.2711 4.79751 13.4336 4.86521C13.5961 4.9329 13.7704 4.96775 13.9464 4.96775C14.1224 4.96775 14.2967 4.9329 14.4592 4.86521C14.6216 4.79751 14.7691 4.69832 14.8931 4.57335C15.9586 3.52133 17.3957 2.93144 18.8931 2.93144C20.3904 2.93144 21.8275 3.52133 22.8931 4.57335C23.9531 5.62822 24.5578 7.05627 24.5778 8.5516C24.5977 10.0469 24.0312 11.4906 22.9997 12.5733V12.6133Z" fill="#687684" stroke="white" stroke-width="0.2"/>
</svg>
