<svg width="16" height="15" viewBox="0 0 16 15" fill="none" xmlns="http://www.w3.org/2000/svg">
<path d="M14.4726 1.87734C13.6795 1.08404 12.628 0.601717 11.5094 0.518095C10.3908 0.434472 9.2793 0.755102 8.37709 1.42167C7.42666 0.714746 6.24367 0.394191 5.06636 0.524561C3.88904 0.654931 2.80485 1.22654 2.03211 2.12428C1.25937 3.02203 0.855478 4.17922 0.901775 5.36282C0.948073 6.54643 1.44112 7.66854 2.28162 8.50318L7.84673 14.0683C7.91617 14.1383 7.99879 14.1939 8.08982 14.2318C8.18084 14.2697 8.27848 14.2892 8.37709 14.2892C8.4757 14.2892 8.57334 14.2697 8.66437 14.2318C8.7554 14.1939 8.83802 14.1383 8.90746 14.0683L14.4726 8.50318C14.9078 8.06822 15.2531 7.55176 15.4886 6.98332C15.7242 6.41487 15.8454 5.80558 15.8454 5.19026C15.8454 4.57494 15.7242 3.96564 15.4886 3.3972C15.2531 2.82875 14.9078 2.3123 14.4726 1.87734ZM13.4193 7.44991L8.37709 12.4847L3.33488 7.44991C2.89055 7.00373 2.58787 6.43628 2.46481 5.81873C2.34174 5.20119 2.40378 4.56105 2.64313 3.97863C2.88248 3.3962 3.28849 2.89743 3.81023 2.54487C4.33197 2.19231 4.9462 2.00167 5.57586 1.99686C6.41706 1.99892 7.22306 2.33475 7.81685 2.9306C7.88629 3.00062 7.96891 3.05619 8.05994 3.09411C8.15096 3.13204 8.2486 3.15156 8.34721 3.15156C8.44582 3.15156 8.54346 3.13204 8.63449 3.09411C8.72552 3.05619 8.80814 3.00062 8.87758 2.9306C9.48886 2.40089 10.2786 2.12321 11.0868 2.15375C11.8951 2.18428 12.6616 2.52076 13.2312 3.09508C13.8008 3.6694 14.1309 4.43866 14.1547 5.24717C14.1785 6.05568 13.8943 6.84305 13.3595 7.44991H13.4193Z" fill="#959FA9"/>
</svg>
