<svg id="SvgjsSvg1001" width="288" height="288" xmlns="http://www.w3.org/2000/svg" version="1.1" xmlns:xlink="http://www.w3.org/1999/xlink" xmlns:svgjs="http://svgjs.com/svgjs"><defs id="SvgjsDefs1002"></defs><g id="SvgjsG1008" transform="matrix(1,0,0,1,0,0)"><svg xmlns="http://www.w3.org/2000/svg" width="288" height="288" fill="none" viewBox="0 0 32 34"><path fill="#687684" fill-rule="evenodd" d="M18.1474 22.3315C19.9171 22.3315 21.3575 23.7975 21.3575 25.5994V30.2338C21.3575 30.621 21.6603 30.9313 22.0484 30.9404H24.8498C27.0575 30.9404 28.8522 29.1234 28.8522 26.8906V13.7468C28.8419 12.9784 28.4847 12.2552 27.8718 11.7746L18.1812 3.85275C16.8804 2.79661 15.0608 2.79661 13.7556 3.85577L4.13114 11.7716C3.49471 12.2673 3.13754 12.9904 3.13019 13.7724V26.8906C3.13019 29.1234 4.92485 30.9404 7.13253 30.9404H9.96048C10.3588 30.9404 10.6822 30.6164 10.6822 30.2187C10.6822 30.1313 10.6925 30.0439 10.7101 29.9611V25.5994C10.7101 23.808 12.1417 22.3436 13.8982 22.3315H18.1474ZM24.8502 33.1996H22.0222C20.4025 33.1605 19.1531 31.8572 19.1531 30.2331V25.5987C19.1531 25.0428 18.7019 24.5908 18.1478 24.5908H13.9058C13.3635 24.5938 12.9152 25.0473 12.9152 25.5987V30.218C12.9152 30.331 12.9005 30.4395 12.8696 30.542C12.7109 32.0335 11.4674 33.1996 9.96082 33.1996H7.13287C3.70964 33.1996 0.925781 30.3687 0.925781 26.8899V13.7612C0.94048 12.2636 1.61366 10.8926 2.7763 9.9901L12.3816 2.08786C14.4967 0.370305 17.4437 0.370305 19.5544 2.08484L29.2288 9.99462C30.365 10.882 31.0382 12.25 31.0573 13.7295V26.8899C31.0573 30.3687 28.2734 33.1996 24.8502 33.1996Z" clip-rule="evenodd" class="color7A44EF svgShape"></path><path fill="#687684" d="M22.0484 30.9404L22.0402 31.289H22.0484V30.9404ZM28.8522 13.7468H29.2008L29.2008 13.7421L28.8522 13.7468ZM27.8718 11.7746L27.6511 12.0445L27.6567 12.0489L27.8718 11.7746ZM18.1812 3.85275L18.4019 3.58286L18.401 3.58212L18.1812 3.85275ZM13.7556 3.85577L13.5359 3.58507L13.5341 3.58653L13.7556 3.85577ZM4.13114 11.7716L4.34542 12.0467L4.35258 12.0408L4.13114 11.7716ZM3.13019 13.7724L2.78159 13.7691V13.7724H3.13019ZM10.7101 29.9611L11.0511 30.0336L11.0587 29.9977V29.9611H10.7101ZM13.8982 22.3315V21.9829L13.8958 21.9829L13.8982 22.3315ZM22.0222 33.1996L22.0138 33.5482H22.0222V33.1996ZM13.9058 24.5908V24.2422L13.9039 24.2422L13.9058 24.5908ZM12.8696 30.542L12.5358 30.4414L12.5264 30.4726L12.523 30.5051L12.8696 30.542ZM0.925781 13.7612L0.577184 13.7578V13.7612H0.925781ZM2.7763 9.9901L2.99013 10.2656L2.99777 10.2593L2.7763 9.9901ZM12.3816 2.08786L12.1619 1.81724L12.1602 1.81865L12.3816 2.08786ZM19.5544 2.08484L19.775 1.81497L19.7742 1.81427L19.5544 2.08484ZM29.2288 9.99462L29.0081 10.2646L29.0142 10.2694L29.2288 9.99462ZM31.0573 13.7295H31.4059L31.4058 13.725L31.0573 13.7295ZM18.1474 22.6801C19.7188 22.6801 21.0089 23.9841 21.0089 25.5994H21.7061C21.7061 23.6108 20.1154 21.9829 18.1474 21.9829V22.6801ZM21.0089 25.5994V30.2338H21.7061V25.5994H21.0089ZM21.0089 30.2338C21.0089 30.8103 21.4629 31.2754 22.0402 31.2889L22.0565 30.5919C21.8577 30.5872 21.7061 30.4316 21.7061 30.2338H21.0089ZM22.0484 31.289H24.8498V30.5918H22.0484V31.289ZM24.8498 31.289C27.254 31.289 29.2008 29.312 29.2008 26.8906H28.5036C28.5036 28.9348 26.8611 30.5918 24.8498 30.5918V31.289ZM29.2008 26.8906V13.7468H28.5036V26.8906H29.2008ZM29.2008 13.7421C29.189 12.8677 28.7824 12.0456 28.0869 11.5003L27.6567 12.0489C28.1871 12.4648 28.4948 13.089 28.5036 13.7514L29.2008 13.7421ZM28.0924 11.5047L18.4019 3.58286L17.9606 4.12264L27.6512 12.0445L28.0924 11.5047ZM18.401 3.58212C16.9719 2.42181 14.9689 2.42225 13.5359 3.58508L13.9752 4.12645C15.1527 3.17097 16.789 3.1714 17.9615 4.12338L18.401 3.58212ZM13.5341 3.58653L3.90971 11.5023L4.35258 12.0408L13.977 4.125L13.5341 3.58653ZM3.91694 11.4965C3.19794 12.0565 2.78997 12.8791 2.78161 13.7691L3.47877 13.7756C3.4851 13.1017 3.79147 12.478 4.34534 12.0466L3.91694 11.4965ZM2.78159 13.7724V26.8906H3.47879V13.7724H2.78159ZM2.78159 26.8906C2.78159 29.312 4.7284 31.289 7.13253 31.289V30.5918C5.12129 30.5918 3.47879 28.9348 3.47879 26.8906H2.78159ZM7.13253 31.289H9.96048V30.5918H7.13253V31.289ZM9.96048 31.289C10.5515 31.289 11.0308 30.8088 11.0308 30.2187H10.3336C10.3336 30.4241 10.1661 30.5918 9.96048 30.5918V31.289ZM11.0308 30.2187C11.0308 30.1582 11.0379 30.0952 11.0511 30.0336L10.3691 29.8885C10.347 29.9927 10.3336 30.1044 10.3336 30.2187H11.0308ZM11.0587 29.9611V25.5994H10.3615V29.9611H11.0587ZM11.0587 25.5994C11.0587 23.9939 12.3413 22.6908 13.9005 22.6801L13.8958 21.9829C11.9421 21.9963 10.3615 23.6221 10.3615 25.5994H11.0587ZM13.8982 22.6801H18.1474V21.9829H13.8982V22.6801ZM24.8502 32.851H22.0222V33.5482H24.8502V32.851ZM22.0307 32.8512C20.6039 32.8166 19.5017 31.6719 19.5017 30.2331H18.8045C18.8045 32.0426 20.201 33.5043 22.0138 33.5481L22.0307 32.8512ZM19.5017 30.2331V25.5987H18.8045V30.2331H19.5017ZM19.5017 25.5987C19.5017 24.851 18.8952 24.2422 18.1478 24.2422V24.9394C18.5086 24.9394 18.8045 25.2346 18.8045 25.5987H19.5017ZM18.1478 24.2422H13.9058V24.9394H18.1478V24.2422ZM13.9039 24.2422C13.1665 24.2463 12.5666 24.8588 12.5666 25.5987H13.2638C13.2638 25.2358 13.5604 24.9413 13.9078 24.9394L13.9039 24.2422ZM12.5666 25.5987V30.218H13.2638V25.5987H12.5666ZM12.5666 30.218C12.5666 30.3008 12.5558 30.375 12.5358 30.4414L13.2034 30.6425C13.2451 30.504 13.2638 30.3613 13.2638 30.218H12.5666ZM12.523 30.5051C12.3823 31.8268 11.2818 32.851 9.96082 32.851V33.5482C11.653 33.5482 13.0394 32.2402 13.2162 30.5789L12.523 30.5051ZM9.96082 32.851H7.13287V33.5482H9.96082V32.851ZM7.13287 32.851C3.90757 32.851 1.27438 30.1816 1.27438 26.8899H0.577184C0.577184 30.5558 3.51171 33.5482 7.13287 33.5482V32.851ZM1.27438 26.8899V13.7612H0.577184V26.8899H1.27438ZM1.27436 13.7646C1.28804 12.3714 1.91317 11.1014 2.99005 10.2655L2.56254 9.71473C1.31416 10.6838 0.592924 12.1558 0.577201 13.7578L1.27436 13.7646ZM2.99777 10.2593L12.6031 2.35706L12.1602 1.81865L2.55482 9.7209L2.99777 10.2593ZM12.6014 2.35847C14.5886 0.744768 17.3521 0.74504 19.3346 2.35542L19.7742 1.81427C17.5353 -0.00442874 14.4048 -0.00415748 12.1619 1.81725L12.6014 2.35847ZM19.3337 2.35472L29.0082 10.2645L29.4495 9.72474L19.775 1.81497L19.3337 2.35472ZM29.0142 10.2694C30.0652 11.0902 30.6909 12.3579 30.7087 13.734L31.4058 13.725C31.3854 12.1421 30.6647 10.6738 29.4434 9.71989L29.0142 10.2694ZM30.7087 13.7295V26.8899H31.4059V13.7295H30.7087ZM30.7087 26.8899C30.7087 30.1816 28.0755 32.851 24.8502 32.851V33.5482C28.4713 33.5482 31.4059 30.5558 31.4059 26.8899H30.7087Z" class="color7A44EF svgShape"></path></svg></g></svg>