<svg width="30" height="30" viewBox="0 0 30 30" fill="none" xmlns="http://www.w3.org/2000/svg">
<path d="M6.99967 16.3334H1.66634C1.31272 16.3334 0.97358 16.4738 0.723532 16.7239C0.473484 16.9739 0.333008 17.3131 0.333008 17.6667V28.3334C0.333008 28.687 0.473484 29.0261 0.723532 29.2762C0.97358 29.5262 1.31272 29.6667 1.66634 29.6667H6.99967C7.3533 29.6667 7.69243 29.5262 7.94248 29.2762C8.19253 29.0261 8.33301 28.687 8.33301 28.3334V17.6667C8.33301 17.3131 8.19253 16.9739 7.94248 16.7239C7.69243 16.4738 7.3533 16.3334 6.99967 16.3334ZM5.66634 27H2.99967V19H5.66634V27ZM28.333 11H22.9997C22.646 11 22.3069 11.1405 22.0569 11.3906C21.8068 11.6406 21.6663 11.9798 21.6663 12.3334V28.3334C21.6663 28.687 21.8068 29.0261 22.0569 29.2762C22.3069 29.5262 22.646 29.6667 22.9997 29.6667H28.333C28.6866 29.6667 29.0258 29.5262 29.2758 29.2762C29.5259 29.0261 29.6663 28.687 29.6663 28.3334V12.3334C29.6663 11.9798 29.5259 11.6406 29.2758 11.3906C29.0258 11.1405 28.6866 11 28.333 11ZM26.9997 27H24.333V13.6667H26.9997V27ZM17.6663 0.333374H12.333C11.9794 0.333374 11.6402 0.47385 11.3902 0.723898C11.1401 0.973947 10.9997 1.31309 10.9997 1.66671V28.3334C10.9997 28.687 11.1401 29.0261 11.3902 29.2762C11.6402 29.5262 11.9794 29.6667 12.333 29.6667H17.6663C18.02 29.6667 18.3591 29.5262 18.6091 29.2762C18.8592 29.0261 18.9997 28.687 18.9997 28.3334V1.66671C18.9997 1.31309 18.8592 0.973947 18.6091 0.723898C18.3591 0.47385 18.02 0.333374 17.6663 0.333374ZM16.333 27H13.6663V3.00004H16.333V27Z" fill="#687684" stroke="white" stroke-width="0.3"/>
</svg>
