<svg width="20" height="16" viewBox="0 0 20 16" fill="none" xmlns="http://www.w3.org/2000/svg">
<path d="M10.2499 8.18366C10.6946 7.79877 11.0512 7.32273 11.2956 6.78785C11.5401 6.25296 11.6666 5.67175 11.6666 5.08366C11.6666 3.97859 11.2276 2.91878 10.4462 2.13738C9.66479 1.35598 8.60499 0.916992 7.49992 0.916992C6.39485 0.916992 5.33504 1.35598 4.55364 2.13738C3.77224 2.91878 3.33325 3.97859 3.33325 5.08366C3.33325 5.67175 3.45975 6.25296 3.70419 6.78785C3.94863 7.32273 4.30527 7.79877 4.74992 8.18366C3.58337 8.7119 2.59364 9.56493 1.89907 10.6408C1.2045 11.7166 0.834478 12.9698 0.833252 14.2503C0.833252 14.4713 0.921049 14.6833 1.07733 14.8396C1.23361 14.9959 1.44557 15.0837 1.66659 15.0837C1.8876 15.0837 2.09956 14.9959 2.25584 14.8396C2.41212 14.6833 2.49992 14.4713 2.49992 14.2503C2.49992 12.9242 3.0267 11.6525 3.96438 10.7148C4.90207 9.77711 6.17384 9.25033 7.49992 9.25033C8.826 9.25033 10.0978 9.77711 11.0355 10.7148C11.9731 11.6525 12.4999 12.9242 12.4999 14.2503C12.4999 14.4713 12.5877 14.6833 12.744 14.8396C12.9003 14.9959 13.1122 15.0837 13.3333 15.0837C13.5543 15.0837 13.7662 14.9959 13.9225 14.8396C14.0788 14.6833 14.1666 14.4713 14.1666 14.2503C14.1654 12.9698 13.7953 11.7166 13.1008 10.6408C12.4062 9.56493 11.4165 8.7119 10.2499 8.18366ZM7.49992 7.58366C7.00546 7.58366 6.52212 7.43704 6.11099 7.16233C5.69987 6.88763 5.37944 6.49718 5.19022 6.04037C5.001 5.58355 4.95149 5.08089 5.04796 4.59593C5.14442 4.11098 5.38252 3.66552 5.73215 3.31589C6.08178 2.96626 6.52724 2.72816 7.01219 2.6317C7.49714 2.53523 7.99981 2.58474 8.45663 2.77396C8.91344 2.96318 9.30389 3.28361 9.57859 3.69473C9.8533 4.10586 9.99992 4.58921 9.99992 5.08366C9.99992 5.7467 9.73653 6.38259 9.26768 6.85143C8.79884 7.32027 8.16296 7.58366 7.49992 7.58366ZM15.6166 7.85033C16.1499 7.24977 16.4983 6.50787 16.6198 5.71394C16.7412 4.92001 16.6307 4.10789 16.3014 3.37533C15.9721 2.64276 15.4381 2.02099 14.7636 1.58484C14.0892 1.1487 13.3031 0.916778 12.4999 0.916992C12.2789 0.916992 12.0669 1.00479 11.9107 1.16107C11.7544 1.31735 11.6666 1.52931 11.6666 1.75033C11.6666 1.97134 11.7544 2.1833 11.9107 2.33958C12.0669 2.49586 12.2789 2.58366 12.4999 2.58366C13.163 2.58366 13.7988 2.84705 14.2677 3.31589C14.7365 3.78473 14.9999 4.42062 14.9999 5.08366C14.9987 5.52136 14.8827 5.95108 14.6633 6.32984C14.4439 6.70861 14.129 7.02314 13.7499 7.24199C13.6264 7.31326 13.5232 7.41505 13.4502 7.53761C13.3773 7.66017 13.337 7.79941 13.3333 7.94199C13.3298 8.08346 13.3624 8.22349 13.428 8.34887C13.4936 8.47426 13.59 8.58087 13.7083 8.65866L14.0333 8.87533L14.1416 8.93366C15.1461 9.41009 15.9935 10.1637 16.5841 11.1056C17.1746 12.0475 17.4837 13.1386 17.4749 14.2503C17.4749 14.4713 17.5627 14.6833 17.719 14.8396C17.8753 14.9959 18.0872 15.0837 18.3083 15.0837C18.5293 15.0837 18.7412 14.9959 18.8975 14.8396C19.0538 14.6833 19.1416 14.4713 19.1416 14.2503C19.1484 12.9715 18.8281 11.7122 18.2111 10.592C17.5942 9.47188 16.701 8.52809 15.6166 7.85033Z" fill="#687684"/>
</svg>
