<svg width="32" height="26" viewBox="0 0 32 26" fill="none" xmlns="http://www.w3.org/2000/svg">
<path d="M26.6759 3.40004L26.5052 3.57075L17.1955 12.8805L26.6759 3.40004ZM26.6759 3.40004H26.4345M26.6759 3.40004H26.4345M26.4345 3.40004H5.56616H5.32474M26.4345 3.40004H5.32474M5.32474 3.40004L5.49545 3.57075M5.32474 3.40004L5.49545 3.57075M5.49545 3.57075L14.8052 12.8805C14.8052 12.8805 14.8053 12.8806 14.8054 12.8807C14.9618 13.0384 15.1479 13.1635 15.353 13.2489C15.5581 13.3344 15.7781 13.3784 16.0003 13.3784C16.2225 13.3784 16.4426 13.3344 16.6477 13.2489C16.8527 13.1635 17.0388 13.0384 17.1952 12.8808L5.49545 3.57075ZM3.23366 5.49112L3.40437 5.66183L12.7143 14.9718L3.23366 5.49112ZM3.23366 5.49112V5.73254M3.23366 5.49112V5.73254M3.23366 5.73254V20.9167C3.23366 21.3632 3.41101 21.7913 3.7267 22.107C4.04238 22.4227 4.47054 22.6 4.91699 22.6H27.0837C27.5301 22.6 27.9583 22.4227 28.274 22.107C28.5896 21.7913 28.767 21.3632 28.767 20.9167V5.73254V5.49112M3.23366 5.73254L28.767 5.49112M28.767 5.49112L28.5963 5.66183M28.767 5.49112L28.5963 5.66183M28.5963 5.66183L19.2863 14.9718C18.4144 15.8426 17.2326 16.3317 16.0003 16.3317C14.7681 16.3317 13.5862 15.8426 12.7144 14.9718L28.5963 5.66183ZM4.91699 0.433374H27.0837C28.3169 0.433374 29.4997 0.923284 30.3717 1.79533C31.2438 2.66737 31.7337 3.85012 31.7337 5.08337V20.9167C31.7337 22.15 31.2438 23.3327 30.3717 24.2048C29.4997 25.0768 28.3169 25.5667 27.0837 25.5667H4.91699C3.68374 25.5667 2.50099 25.0768 1.62895 24.2048C0.756902 23.3327 0.266992 22.15 0.266992 20.9167V5.08337C0.266992 3.85012 0.756902 2.66737 1.62895 1.79533C2.50099 0.923283 3.68374 0.433374 4.91699 0.433374Z" fill="#687684" stroke="white" stroke-width="0.2"/>
</svg>
