<svg width="13" height="15" viewBox="0 0 13 15" fill="none" xmlns="http://www.w3.org/2000/svg">
<path d="M11.4628 5.15746L4.24679 1.01912C3.85632 0.793645 3.41314 0.675529 2.96225 0.676767C2.51137 0.678006 2.06884 0.798554 1.67962 1.02617C1.2904 1.25378 0.968348 1.58036 0.746186 1.97271C0.524023 2.36507 0.409659 2.80924 0.414711 3.2601V11.5667C0.414711 12.2442 0.683868 12.894 1.16297 13.3731C1.64207 13.8522 2.29188 14.1214 2.96943 14.1214C3.41795 14.1206 3.85842 14.0021 4.24679 13.7778L11.4628 9.63943C11.8505 9.41502 12.1724 9.09261 12.3962 8.70452C12.62 8.31643 12.7378 7.87632 12.7378 7.42833C12.7378 6.98034 12.62 6.54022 12.3962 6.15214C12.1724 5.76405 11.8505 5.44163 11.4628 5.21722V5.15746ZM10.7158 8.28737L3.4998 12.4855C3.33806 12.5771 3.15533 12.6253 2.96943 12.6253C2.78353 12.6253 2.6008 12.5771 2.43906 12.4855C2.27779 12.3924 2.14386 12.2584 2.05076 12.0971C1.95766 11.9359 1.90867 11.7529 1.9087 11.5667V3.23022C1.90867 3.04399 1.95766 2.86104 2.05076 2.69975C2.14386 2.53846 2.27779 2.40453 2.43906 2.31142C2.60147 2.22115 2.78365 2.17239 2.96943 2.16949C3.15508 2.1733 3.33705 2.222 3.4998 2.31142L10.7158 6.47964C10.8771 6.57272 11.0111 6.70663 11.1042 6.86792C11.1974 7.02921 11.2464 7.21219 11.2464 7.39845C11.2464 7.58471 11.1974 7.76768 11.1042 7.92897C11.0111 8.09026 10.8771 8.22417 10.7158 8.31725V8.28737Z" fill="#959FA9"/>
</svg>
