<svg width="32" height="32" viewBox="0 0 32 32" fill="none" xmlns="http://www.w3.org/2000/svg">
<path d="M29.98 12.325L27.145 11.38L28.48 8.71C28.6153 8.43053 28.6606 8.11595 28.6096 7.80966C28.5585 7.50338 28.4137 7.22048 28.195 7L25 3.805C24.7784 3.58313 24.4927 3.43632 24.1833 3.38519C23.8739 3.33407 23.5562 3.38122 23.275 3.52001L20.605 4.85501L19.66 2.02001C19.5602 1.72449 19.3708 1.46744 19.118 1.28463C18.8653 1.10181 18.5619 1.00232 18.25 1.00001H13.75C13.4355 0.999193 13.1288 1.09723 12.8731 1.28027C12.6174 1.4633 12.4256 1.72207 12.325 2.02001L11.38 4.85501L8.71001 3.52001C8.43053 3.38467 8.11595 3.33941 7.80966 3.39046C7.50338 3.44151 7.22048 3.58635 7.00001 3.805L3.80501 7C3.58313 7.22165 3.43632 7.50727 3.38519 7.81669C3.33407 8.12611 3.38122 8.44377 3.52001 8.72501L4.85501 11.395L2.02001 12.34C1.72449 12.4398 1.46744 12.6292 1.28463 12.882C1.10181 13.1347 1.00232 13.4381 1.00001 13.75V18.25C0.999193 18.5645 1.09723 18.8712 1.28027 19.1269C1.4633 19.3827 1.72207 19.5744 2.02001 19.675L4.85501 20.62L3.52001 23.29C3.38468 23.5695 3.33941 23.8841 3.39046 24.1903C3.44151 24.4966 3.58635 24.7795 3.80501 25L7.00001 28.195C7.22165 28.4169 7.50727 28.5637 7.81669 28.6148C8.12611 28.6659 8.44377 28.6188 8.72501 28.48L11.395 27.145L12.34 29.98C12.4406 30.2779 12.6324 30.5367 12.8881 30.7197C13.1438 30.9028 13.4505 31.0008 13.765 31H18.265C18.5795 31.0008 18.8862 30.9028 19.142 30.7197C19.3977 30.5367 19.5894 30.2779 19.69 29.98L20.635 27.145L23.305 28.48C23.5827 28.6119 23.8942 28.6553 24.1974 28.6044C24.5005 28.5534 24.7807 28.4105 25 28.195L28.195 25C28.4169 24.7784 28.5637 24.4927 28.6148 24.1833C28.6659 23.8739 28.6188 23.5562 28.48 23.275L27.145 20.605L29.98 19.66C30.2755 19.5602 30.5326 19.3708 30.7154 19.118C30.8982 18.8653 30.9977 18.5619 31 18.25V13.75C31.0008 13.4355 30.9028 13.1288 30.7197 12.8731C30.5367 12.6174 30.2779 12.4256 29.98 12.325ZM28 17.17L26.2 17.77C25.7861 17.9043 25.4063 18.127 25.0871 18.4227C24.7678 18.7183 24.5167 19.0799 24.3512 19.4824C24.1857 19.8848 24.1096 20.3184 24.1284 20.7532C24.1472 21.1879 24.2604 21.6134 24.46 22L25.315 23.71L23.665 25.36L22 24.46C21.6153 24.2684 21.194 24.1616 20.7645 24.1469C20.335 24.1323 19.9073 24.2101 19.5105 24.3751C19.1137 24.5401 18.7569 24.7884 18.4644 25.1033C18.1719 25.4181 17.9504 25.7921 17.815 26.2L17.215 28H14.83L14.23 26.2C14.0957 25.7861 13.873 25.4063 13.5774 25.0871C13.2817 24.7678 12.9201 24.5167 12.5176 24.3512C12.1152 24.1857 11.6816 24.1096 11.2468 24.1284C10.8121 24.1472 10.3867 24.2604 10 24.46L8.29001 25.315L6.64001 23.665L7.54001 22C7.73965 21.6134 7.85279 21.1879 7.87157 20.7532C7.89036 20.3184 7.81435 19.8848 7.64881 19.4824C7.48327 19.0799 7.23217 18.7183 6.91292 18.4227C6.59367 18.127 6.21392 17.9043 5.8 17.77L4.00001 17.17V14.83L5.8 14.23C6.21392 14.0957 6.59367 13.873 6.91292 13.5774C7.23217 13.2817 7.48327 12.9201 7.64881 12.5176C7.81435 12.1152 7.89036 11.6816 7.87157 11.2468C7.85279 10.8121 7.73965 10.3867 7.54001 10L6.68501 8.335L8.33501 6.68501L10 7.54001C10.3867 7.73965 10.8121 7.85278 11.2468 7.87157C11.6816 7.89036 12.1152 7.81435 12.5176 7.64881C12.9201 7.48327 13.2817 7.23217 13.5774 6.91292C13.873 6.59367 14.0957 6.21392 14.23 5.8L14.83 4.00001H17.17L17.77 5.8C17.9043 6.21392 18.127 6.59367 18.4227 6.91292C18.7183 7.23217 19.0799 7.48327 19.4824 7.64881C19.8848 7.81435 20.3184 7.89036 20.7532 7.87157C21.1879 7.85278 21.6134 7.73965 22 7.54001L23.71 6.68501L25.36 8.335L24.46 10C24.2684 10.3847 24.1616 10.806 24.147 11.2355C24.1323 11.6651 24.2101 12.0927 24.3751 12.4895C24.5401 12.8864 24.7884 13.2431 25.1033 13.5356C25.4181 13.8281 25.7921 14.0496 26.2 14.185L28 14.785V17.17ZM16 10C14.8133 10 13.6533 10.3519 12.6666 11.0112C11.6799 11.6705 10.9109 12.6075 10.4567 13.7039C10.0026 14.8003 9.88378 16.0067 10.1153 17.1705C10.3468 18.3344 10.9183 19.4035 11.7574 20.2426C12.5965 21.0818 13.6656 21.6532 14.8295 21.8847C15.9934 22.1162 17.1998 21.9974 18.2961 21.5433C19.3925 21.0892 20.3295 20.3201 20.9888 19.3334C21.6481 18.3467 22 17.1867 22 16C22 14.4087 21.3679 12.8826 20.2426 11.7574C19.1174 10.6321 17.5913 10 16 10ZM16 19C15.4067 19 14.8266 18.8241 14.3333 18.4944C13.8399 18.1648 13.4554 17.6962 13.2284 17.1481C13.0013 16.5999 12.9419 15.9967 13.0576 15.4147C13.1734 14.8328 13.4591 14.2982 13.8787 13.8787C14.2982 13.4591 14.8328 13.1734 15.4147 13.0576C15.9967 12.9419 16.5999 13.0013 17.1481 13.2284C17.6962 13.4554 18.1648 13.8399 18.4944 14.3333C18.8241 14.8266 19 15.4067 19 16C19 16.7957 18.6839 17.5587 18.1213 18.1213C17.5587 18.6839 16.7957 19 16 19Z" fill="#687684" stroke="white" stroke-width="0.6"/>
</svg>
