<svg width="20" height="19" viewBox="0 0 20 19" fill="none" xmlns="http://www.w3.org/2000/svg">
<path fill-rule="evenodd" clip-rule="evenodd" d="M10 0.400024C9.68176 0.400024 9.37654 0.526453 9.1515 0.751496C8.92645 0.97654 8.80002 1.28176 8.80002 1.60002V2.80002C8.80002 3.11828 8.92645 3.42351 9.1515 3.64855C9.37654 3.8736 9.68176 4.00002 10 4.00002C10.3183 4.00002 10.6235 3.8736 10.8486 3.64855C11.0736 3.42351 11.2 3.11828 11.2 2.80002V1.60002C11.2 1.28176 11.0736 0.97654 10.8486 0.751496C10.6235 0.526453 10.3183 0.400024 10 0.400024ZM2.80002 2.80002H6.40002C6.40002 3.7548 6.77931 4.67048 7.45444 5.34561C8.12957 6.02074 9.04524 6.40003 10 6.40003C10.9548 6.40003 11.8705 6.02074 12.5456 5.34561C13.2207 4.67048 13.6 3.7548 13.6 2.80002H17.2C17.8365 2.80002 18.447 3.05288 18.8971 3.50297C19.3472 3.95306 19.6 4.56351 19.6 5.20003V16C19.6 16.6365 19.3472 17.247 18.8971 17.6971C18.447 18.1472 17.8365 18.4 17.2 18.4H2.80002C2.1635 18.4 1.55306 18.1472 1.10297 17.6971C0.652881 17.247 0.400024 16.6365 0.400024 16V5.20003C0.400024 4.56351 0.652881 3.95306 1.10297 3.50297C1.55306 3.05288 2.1635 2.80002 2.80002 2.80002ZM5.80002 11.2C6.27741 11.2 6.73525 11.0104 7.07282 10.6728C7.41038 10.3353 7.60002 9.87742 7.60002 9.40003C7.60002 8.92264 7.41038 8.4648 7.07282 8.12723C6.73525 7.78967 6.27741 7.60003 5.80002 7.60003C5.32263 7.60003 4.8648 7.78967 4.52723 8.12723C4.18967 8.4648 4.00002 8.92264 4.00002 9.40003C4.00002 9.87742 4.18967 10.3353 4.52723 10.6728C4.8648 11.0104 5.32263 11.2 5.80002 11.2ZM8.74002 16C8.8285 15.5643 8.81902 15.1144 8.71228 14.6828C8.60554 14.2512 8.40421 13.8487 8.12284 13.5045C7.84148 13.1602 7.48711 12.8828 7.08539 12.6923C6.68367 12.5019 6.24462 12.403 5.80002 12.403C5.35542 12.403 4.91638 12.5019 4.51466 12.6923C4.11293 12.8828 3.75857 13.1602 3.4772 13.5045C3.19584 13.8487 2.9945 14.2512 2.88776 14.6828C2.78103 15.1144 2.77155 15.5643 2.86002 16H8.74002ZM12.4 8.80003C12.0818 8.80003 11.7765 8.92645 11.5515 9.1515C11.3265 9.37654 11.2 9.68177 11.2 10C11.2 10.3183 11.3265 10.6235 11.5515 10.8486C11.7765 11.0736 12.0818 11.2 12.4 11.2H16C16.3183 11.2 16.6235 11.0736 16.8486 10.8486C17.0736 10.6235 17.2 10.3183 17.2 10C17.2 9.68177 17.0736 9.37654 16.8486 9.1515C16.6235 8.92645 16.3183 8.80003 16 8.80003H12.4ZM11.2 13.6C11.2 13.2818 11.3265 12.9765 11.5515 12.7515C11.7765 12.5265 12.0818 12.4 12.4 12.4H14.8C15.1183 12.4 15.4235 12.5265 15.6486 12.7515C15.8736 12.9765 16 13.2818 16 13.6C16 13.9183 15.8736 14.2235 15.6486 14.4486C15.4235 14.6736 15.1183 14.8 14.8 14.8H12.4C12.0818 14.8 11.7765 14.6736 11.5515 14.4486C11.3265 14.2235 11.2 13.9183 11.2 13.6Z" fill="#687684"/>
</svg>
