<svg width="20" height="20" viewBox="0 0 20 20" fill="none" xmlns="http://www.w3.org/2000/svg">
<path d="M16.6666 3.33301H3.33325C2.67021 3.33301 2.03433 3.5964 1.56548 4.06524C1.09664 4.53408 0.833252 5.16997 0.833252 5.83301V14.1663C0.833252 14.8294 1.09664 15.4653 1.56548 15.9341C2.03433 16.4029 2.67021 16.6663 3.33325 16.6663H16.6666C17.3296 16.6663 17.9655 16.4029 18.4344 15.9341C18.9032 15.4653 19.1666 14.8294 19.1666 14.1663V5.83301C19.1666 5.16997 18.9032 4.53408 18.4344 4.06524C17.9655 3.5964 17.3296 3.33301 16.6666 3.33301ZM17.4999 14.1663C17.4999 14.3874 17.4121 14.5993 17.2558 14.7556C17.0996 14.9119 16.8876 14.9997 16.6666 14.9997H3.33325C3.11224 14.9997 2.90028 14.9119 2.744 14.7556C2.58772 14.5993 2.49992 14.3874 2.49992 14.1663V5.83301C2.49992 5.61199 2.58772 5.40003 2.744 5.24375C2.90028 5.08747 3.11224 4.99967 3.33325 4.99967H16.6666C16.8876 4.99967 17.0996 5.08747 17.2558 5.24375C17.4121 5.40003 17.4999 5.61199 17.4999 5.83301V14.1663Z" fill="#687684"/>
</svg>
